<svg xmlns="http://www.w3.org/2000/svg" width="171" height="229.738" viewBox="0 0 171 229.738">
  <path id="Subtraction_15" data-name="Subtraction 15" d="M0,321.738V92H97.1L20.624,313.43,0,321.737H0Zm34.3-13.817L107.467,96.09l6.985,17.235L49.332,301.867,34.3,307.92h0Zm28.709-11.564,57.8-167.344,8.351,20.608-48.181,139.5-17.967,7.237h0ZM94.66,283.609l40.859-118.3,7.144,17.627L110.03,277.419l-15.369,6.19h0Zm29.05-11.7,25.31-73.284,8.595,21.207L142.2,264.461l-18.489,7.447h0Zm32.172-12.959h0l8.092-23.429L171,252.86Z" transform="translate(0 -92)" opacity="0.1"/>
</svg>
