<svg xmlns="http://www.w3.org/2000/svg" width="582" height="498.464" viewBox="0 0 582 498.464">
  <g id="Subtraction_13" data-name="Subtraction 13" transform="translate(-642 -187.551)" fill="#fff" opacity="0.1">
    <path d="M 642.499755859375 685.2733154296875 L 642.499755859375 380.0481567382813 L 1117.335693359375 188.2019500732422 L 1223.34912109375 450.5948791503906 L 642.499755859375 685.2733154296875 Z" stroke="none"/>
    <path d="M 642.999755859375 684.531982421875 L 1222.6982421875 450.3185729980469 L 1117.059326171875 188.8528900146484 L 642.999755859375 380.3854675292969 L 642.999755859375 684.531982421875 M 641.999755859375 686.0147094726563 L 641.999755859375 379.7109375 L 1117.611938476563 187.5510864257813 L 1224 450.8711547851563 L 641.999755859375 686.0145874023438 L 641.999755859375 686.0147094726563 Z" stroke="none" fill="#707070"/>
  </g>
  <g id="Subtraction_12" data-name="Subtraction 12" transform="translate(-642 -79.551)" fill="#fff" opacity="0.1">
    <path d="M 642.499755859375 395.5447998046875 L 642.499755859375 89.89027404785156 L 795.2340087890625 237.3837280273438 L 642.499755859375 395.5447998046875 Z" stroke="none"/>
    <path d="M 642.999755859375 394.3072509765625 L 794.5270385742188 237.3960723876953 L 642.999755859375 91.06820678710938 L 642.999755859375 394.3072509765625 M 641.999755859375 396.7824401855469 L 641.9996948242188 396.7824401855469 L 641.999755859375 396.7824401855469 Z M 641.999755859375 396.7824401855469 L 641.999755859375 88.71234893798828 L 795.9410400390625 237.3713836669922 L 641.9996948242188 396.7824401855469 Z" stroke="none" fill="#707070"/>
  </g>
</svg>
