<svg xmlns="http://www.w3.org/2000/svg" width="55.337" height="31.126" viewBox="0 0 55.337 31.126">
  <path id="Union_5" data-name="Union 5" d="M0-826.873V-858H55.337v31.126Zm3.459-3.459H51.878v-24.209H3.459Zm36.49-4.075V-849.86a1.546,1.546,0,0,1,1.545-1.545,1.546,1.546,0,0,1,1.545,1.545v15.453a1.546,1.546,0,0,1-1.545,1.545A1.546,1.546,0,0,1,39.949-834.407Zm-13.908,1.545a4.641,4.641,0,0,1-4.636-4.636v-9.272a4.641,4.641,0,0,1,4.636-4.636h3.091a4.641,4.641,0,0,1,4.636,4.636v9.272a4.641,4.641,0,0,1-4.636,4.636ZM24.5-846.77v9.272a1.546,1.546,0,0,0,1.545,1.545h3.091a1.546,1.546,0,0,0,1.545-1.545v-9.272a1.546,1.546,0,0,0-1.545-1.545H26.042A1.546,1.546,0,0,0,24.5-846.77ZM12.133-834.407V-849.86a1.546,1.546,0,0,1,1.545-1.545,1.546,1.546,0,0,1,1.545,1.545v15.453a1.546,1.546,0,0,1-1.545,1.545A1.546,1.546,0,0,1,12.133-834.407Z" transform="translate(0 858)" fill="#001021"/>
</svg>
